<svg xmlns="http://www.w3.org/2000/svg" width="96" height="96" viewBox="-191.5 672.5 96 96" enable-background="new -191.5 672.5 96 96"><path fill="#fff" d="M-143.5 673.5c-25.958 0-47 21.04-47 47 0 25.955 21.042 47 47 47 25.956 0 47-21.045 47-47 0-25.96-21.044-47-47-47zm23.657 42.735l-21.705 21.704c-1.074 1.07-2.835 1.07-3.91 0l-21.7-21.702c-1.072-1.07-1.072-2.83 0-3.903l4.762-4.765c1.81-1.812 4.542-1.57 6.148.04l10.79 10.787c1.074 1.077 2.835 1.077 3.91 0l10.822-10.818c1.813-1.817 4.433-1.708 6.13-.006l4.753 4.753c1.073 1.07 1.073 2.835 0 3.908z"/></svg>