<svg xmlns="http://www.w3.org/2000/svg" width="96" height="96" viewBox="0 0 96 96"><path fill="#fff" d="M48 1C22.042 1 1 22.042 1 48c0 25.957 21.042 47 47 47 25.957 0 47-21.043 47-47C95 22.042 73.957 1 48 1zm13.188 65l-1.127.06c1.677-3.964 5.006-10.272 4.73-16.912-.14-3.723-1.468-7.75-3.834-10.817C58.316 34.764 54 31.747 50 31.434v41.195c0 3.26-1.944 6.268-4.667 8.396-2.652 2.13-6.17 3.238-9.232 2.925-1.947-.194-3.767-1.063-5.01-2.285-1.32-1.23-2.087-2.872-2.087-4.68 0-2.85 1.933-5.473 4.573-7.416 2.638-2 5.883-3.315 8.676-3.257 2.44.063 4.748.384 5.748 1.614V12c1 0 1.227.007 1.79.015.488 3.64.606 8.2 4.237 12.863 2.79 3.56 5.944 6.796 8.1 9.66 2.848 3.76 4.866 8.278 4.866 12.79.002 7.197-3.434 14.455-5.805 18.672z"/></svg>