<?xml version="1.0" encoding="utf-8"?>
<!-- Generator: Adobe Illustrator 16.0.4, SVG Export Plug-In . SVG Version: 6.00 Build 0)  -->
<!DOCTYPE svg PUBLIC "-//W3C//DTD SVG 1.1//EN" "http://www.w3.org/Graphics/SVG/1.1/DTD/svg11.dtd">
<svg version="1.1" id="Layer_1" xmlns="http://www.w3.org/2000/svg" xmlns:xlink="http://www.w3.org/1999/xlink" x="0px" y="0px"
	 width="96px" height="96px" viewBox="-191.5 672.5 96 96" enable-background="new -191.5 672.5 96 96" xml:space="preserve">
<path fill="#FFFFFF" d="M-143.5,673.5c-25.958,0-47,21.04-47,47c0,25.955,21.042,47,47,47c25.956,0,47-21.045,47-47
	C-96.5,694.54-117.544,673.5-143.5,673.5z M-119.843,716.235l-21.705,21.704c-1.074,1.072-2.835,1.072-3.909,0l-21.7-21.701
	c-1.073-1.071-1.073-2.83,0-3.903l4.761-4.765c1.811-1.812,4.542-1.571,6.148,0.039l10.791,10.788c1.073,1.077,2.834,1.077,3.909,0
	l10.822-10.818c1.813-1.816,4.433-1.707,6.13-0.005l4.753,4.753C-118.77,713.398-118.77,715.162-119.843,716.235z"/>
</svg>
