<?xml version="1.0" encoding="utf-8"?>
<!-- Generator: Adobe Illustrator 16.0.4, SVG Export Plug-In . SVG Version: 6.00 Build 0)  -->
<!DOCTYPE svg PUBLIC "-//W3C//DTD SVG 1.1//EN" "http://www.w3.org/Graphics/SVG/1.1/DTD/svg11.dtd">
<svg version="1.1" id="Layer_1" xmlns="http://www.w3.org/2000/svg" xmlns:xlink="http://www.w3.org/1999/xlink" x="0px" y="0px"
	 width="96px" height="96px" viewBox="0 0 96 96" enable-background="new 0 0 96 96" xml:space="preserve">
<path fill="#FFFFFF" d="M48,1C22.042,1,1,22.042,1,48c0,25.957,21.042,47,47,47c25.957,0,47-21.043,47-47C95,22.042,73.957,1,48,1z
	 M61.188,66c-0.372,0.021-0.75,0.039-1.127,0.061c1.676-3.965,5.005-10.273,4.728-16.913c-0.139-3.723-1.467-7.749-3.833-10.817
	C58.315,34.763,54,31.746,50,31.433c0,13.732,0,27.465,0,41.195c0,3.26-1.944,6.268-4.667,8.396
	c-2.652,2.131-6.171,3.238-9.232,2.925c-1.948-0.193-3.768-1.062-5.012-2.284c-1.318-1.229-2.086-2.872-2.086-4.679
	c0-2.851,1.933-5.474,4.573-7.417c2.638-2,5.883-3.314,8.676-3.256C44.693,66.376,47,66.697,48,67.927C48,49.288,48,30.644,48,12
	c1,0.001,1.227,0.007,1.79,0.015c0.488,3.641,0.606,8.199,4.237,12.863c2.789,3.561,5.944,6.796,8.101,9.661
	c2.847,3.76,4.865,8.277,4.865,12.789C66.995,54.525,63.559,61.783,61.188,66z"/>
</svg>
